<svg width="142" height="55" viewBox="0 0 142 55" fill="none" xmlns="http://www.w3.org/2000/svg">
<path d="M0.593428 54.3568C-0.120161 53.6446 -0.197725 51.917 0.401633 50.1218C2.07561 45.1069 4.88907 38.858 6.65894 36.2195C8.41753 33.5964 10.3877 31.6488 11.6668 31.2652C12.6977 30.9564 13.6355 31.6657 13.6355 32.7559C13.6355 33.4497 13.1969 34.2056 12.0969 35.4057C11.4355 36.1264 11.2818 36.2223 10.65 36.3069C9.74881 36.4254 9.33561 36.7765 8.43022 38.1882C6.9424 40.508 4.25586 46.276 3.94843 47.8104C3.86522 48.2278 4.09086 48.6297 4.40817 48.6297C4.78753 48.6297 6.84651 46.6257 10.2805 42.9182C12.2182 40.8239 13.9175 38.8891 14.0571 38.6169C14.1954 38.3447 14.5705 37.2179 14.8906 36.1109C15.2107 35.0038 15.6225 33.7007 15.8059 33.2156C16.9975 30.0482 22.5737 18.5687 24.3125 15.7002C25.4619 13.8048 27.7 10.5514 28.8719 9.07202C30.3794 7.16958 32.1493 5.75792 33.0251 5.75792C33.9756 5.75792 34.9783 6.60407 35.1602 7.56023C35.2209 7.88317 35.1602 8.65458 35.0009 9.56561C34.5919 11.9151 34.5891 11.9489 34.8528 12.0505C35.1532 12.1661 35.6454 11.7036 36.9752 10.0592C38.5519 8.11023 40.6955 6.09356 41.3893 5.90599C42.4921 5.60984 43.6739 6.39958 43.6739 7.4333C43.6725 8.13138 43.0633 10.3511 42.4498 11.8897C41.0184 15.4816 37.5788 21.0423 34.3832 24.9289C31.7629 28.1161 27.1274 32.9914 23.3493 36.5311C21.9729 37.8201 21.1789 38.6775 20.9815 39.0823C20.6995 39.6689 20.6952 39.7254 20.911 40.4601C21.0351 40.8818 21.186 41.2795 21.248 41.3443C21.3989 41.5037 21.8516 41.2527 22.8727 40.446C24.7018 39.0005 25.5606 38.7861 26.9412 39.432C28.1301 39.9891 30.1355 41.8577 30.1355 42.4077C30.1341 42.9365 29.6757 43.6163 28.9762 44.1268C28.4121 44.5386 28.3219 44.5611 27.597 44.4638C26.2192 44.2819 25.9597 44.3228 25.1714 44.8446C24.761 45.1182 23.943 45.6047 23.3536 45.9277C21.2621 47.0756 20.1353 46.5595 19.6361 44.2227C19.4697 43.4428 19.065 43.7488 17.1216 46.1336C16.4405 46.9684 15.7241 47.7243 15.5295 47.8132C15.0359 48.0388 14.4929 47.8174 14.098 47.2321C13.5974 46.4889 13.675 45.9023 14.4816 44.3284C15.2206 42.8857 15.2601 42.7574 15.0584 42.4401C14.7848 42.0086 14.1982 42.4725 12.0066 44.8545C7.41625 49.8411 5.28676 51.8846 2.65804 53.8251C2.01215 54.3032 1.3592 54.6938 1.20689 54.6938C1.05458 54.6938 0.779582 54.5429 0.593428 54.3568ZM20.5584 31.2539C22.9784 28.7592 27.6689 21.1678 30.2638 15.5423C31.7939 12.2282 32.1239 10.9787 31.5006 10.8588C31.1607 10.7939 30.866 11.0732 29.6179 12.6371C27.6125 15.1474 25.586 18.5447 22.8853 23.9178C21.045 27.5802 19.5586 30.9987 19.5586 31.5684C19.5586 32.0141 19.9365 31.8956 20.5584 31.2539ZM30.8364 25.2547C33.2521 22.8192 35.6186 19.5615 37.7636 15.72C38.6168 14.1927 38.8875 13.5848 38.8466 13.2816C38.793 12.8854 38.7775 12.8938 37.7692 13.9374C35.2392 16.5506 29.0073 25.5269 29.0073 26.555C29.0073 26.9921 29.3669 26.7369 30.8364 25.2547ZM36.5437 46.0955C35.4846 45.1689 34.7414 44.822 33.8191 44.822C32.9334 44.822 32.6062 44.6683 32.3228 44.1197C31.9984 43.4936 32.0633 43.0846 32.6034 42.3343C32.8756 41.9578 33.7401 40.7027 34.5256 39.5462C36.3928 36.7948 36.4055 36.7836 37.6662 36.7836C38.9129 36.7821 39.006 36.7102 40.6179 34.5102C41.8956 32.7657 42.0239 32.6064 47.3745 26.2066C51.6616 21.0789 53.0127 19.4882 56.5073 15.4577C61.728 9.43587 64.6727 5.87215 67.4057 2.26753C68.2434 1.16471 69.0473 0.198687 69.1954 0.119712C69.837 -0.22439 70.9145 0.212789 71.188 0.927789C71.4095 1.5074 71.1782 2.09971 69.9259 4.15446C64.9702 12.2888 59.5012 20.1454 54.4003 26.4605C51.6898 29.8155 48.8919 33.5527 48.8919 33.8192C48.8919 34.1957 49.1612 34.3382 50.068 34.4397C51.0496 34.5497 51.5516 34.788 52.048 35.3789C52.6883 36.1405 52.5191 36.7286 51.2315 38.2037C50.3318 39.236 50.2232 39.5251 50.5941 39.896C50.8338 40.1357 51.0764 40.1682 52.5995 40.1682C54.1183 40.1682 54.4088 40.2077 54.9518 40.4855C55.7246 40.8804 55.9065 41.1568 55.726 41.663C55.3904 42.6051 54.1789 42.9097 51.1483 42.811C49.4334 42.756 48.9173 42.6841 47.9442 42.3682C47.3068 42.1623 46.5057 41.7787 46.1645 41.5178C45.252 40.8211 44.9573 40.6942 44.4792 40.7901C43.6161 40.9622 41.7419 42.7038 39.7252 45.207C38.2346 47.0559 37.7847 47.1814 36.5437 46.0955ZM69.7961 44.3045C69.5098 44.1888 69.1996 43.4696 69.1996 42.9196C69.1996 42.3061 69.476 41.7589 70.6366 40.0779C72.1851 37.8356 74.4246 34.9615 77.8741 30.79C79.4691 28.8622 79.6355 28.6196 79.6355 28.2233C79.6355 27.6522 79.1588 27.5111 76.956 27.4378C75.1819 27.3786 74.8209 27.4039 74.2356 27.6338C73.8647 27.7791 73.4459 27.8989 73.3062 27.8989C72.8959 27.8989 72.6237 27.4589 72.5532 26.6805C72.5137 26.2475 72.3078 25.6087 72.0412 25.0982C71.1979 23.4778 70.9497 21.3229 71.3911 19.4515C71.6323 18.4263 72.4375 16.803 72.9382 16.3334C74.3766 14.9824 75.8278 17.9595 75.8278 22.2579C75.8278 23.9996 75.8461 24.1223 76.1535 24.4297C76.7656 25.0418 78.5129 25.0263 81.4688 24.3832C83.7816 23.8797 84.2809 23.5497 86.4527 21.0888C89.1082 18.0793 93.2868 13.9064 95.7829 11.7755C98.9927 9.03394 102.314 6.88612 103.342 6.88612C103.844 6.88612 104.583 7.41779 104.91 8.01433C105.296 8.71946 105.192 10.0634 104.656 11.2636C104.065 12.5892 101.626 15.758 99.9925 17.322C96.7743 20.4034 92.9441 22.8643 88.7923 24.5186C86.4653 25.4451 85.9887 25.737 84.8027 26.9639C83.501 28.3093 78.8359 33.8404 78.5707 34.3509C78.2647 34.9432 78.4903 35.2704 79.3746 35.5157C80.1601 35.7343 80.1643 36.0164 79.3915 36.768C77.3607 38.7438 73.7773 42.01 72.7957 42.7757C70.7678 44.3609 70.4011 44.5484 69.7961 44.3045ZM73.9888 22.2678C74.2991 21.6896 74.1284 20.7066 73.7194 20.7066C73.302 20.7066 73.0002 21.7079 73.2343 22.3172C73.3528 22.626 73.8139 22.5964 73.9888 22.2678ZM93.5618 19.2019C96.4979 17.4659 100.991 13.1942 100.581 12.5314C100.162 11.8545 97.7728 13.5595 94.2669 17.0357C92.8411 18.4488 92.1868 19.1963 92.1868 19.4092C92.1868 19.8577 92.5435 19.8041 93.5618 19.2019ZM80.8342 42.2836C80.5818 42.0043 80.5521 41.773 80.5521 40.1174C80.5521 38.4322 80.586 38.1839 80.9244 37.3829C81.4688 36.0883 82.401 34.7246 82.8734 34.53C83.4009 34.3114 83.728 34.4877 84.2794 35.2873C85.0918 36.4677 85.3132 36.4014 87.2664 34.3932C88.9037 32.7093 89.3169 32.4386 89.9896 32.6078C90.4662 32.7277 91.1587 33.4582 91.2687 33.9546C91.397 34.5398 91.1784 34.8557 90.3055 35.3479C89.8387 35.6116 89.0334 36.3266 88.2211 37.201C86.5669 38.9807 84.1976 41.1568 83.1047 41.8986C82.0611 42.6079 81.2516 42.7447 80.8342 42.2836ZM89.7315 41.1441C89.2464 40.5673 89.2182 39.3206 89.6694 38.435C90.0911 37.6086 91.6466 36.0375 92.8044 35.2661C95.4642 33.4991 97.0267 33.5273 99.0237 35.3789L100.086 36.3633L101.256 36.3266C102.358 36.2928 102.465 36.3154 103.037 36.713C104.254 37.5578 104.393 37.6283 104.831 37.6283C105.144 37.6297 105.676 37.3618 106.629 36.7257C107.372 36.2279 108.505 35.6173 109.145 35.3663C110.166 34.9672 110.464 34.9136 111.578 34.9248C112.999 34.9404 113.528 34.812 114.452 34.2254C115.278 33.7007 115.888 33.7064 116.796 34.2451C117.323 34.5582 117.68 34.6639 118.207 34.6654C118.898 34.6682 121.327 34.0646 123.548 33.3383C125.04 32.8518 126.006 32.8532 126.591 33.3454C127.147 33.8136 127.443 34.3819 127.443 34.9855C127.443 35.245 127.519 35.5341 127.612 35.6272C128.037 36.0516 128.724 35.723 131.805 33.626C134.25 31.9605 137.495 30.4106 139.058 30.161C140.364 29.9523 141.687 30.5136 141.687 31.2765C141.687 31.4937 141.608 31.7363 141.51 31.8152C141.413 31.8942 140.045 32.6064 138.471 33.3975C136.355 34.4623 134.719 35.4283 132.196 37.1051C130.319 38.3532 128.433 39.5195 128.007 39.6971C126.173 40.4629 124.867 39.8368 124.18 37.8596C124.075 37.5606 123.802 37.1559 123.571 36.9627C123.208 36.6566 123.056 36.62 122.441 36.6862C121.151 36.8259 119.952 37.3011 118.982 38.0584C116.646 39.8777 114.614 41.0143 113.693 41.0143C112.65 41.0143 111.905 40.1879 111.722 38.827C111.586 37.813 111.378 37.3561 111.007 37.263C110.495 37.1347 110.201 37.2884 108.659 38.4984C107.016 39.786 106.134 40.2782 105.254 40.398C104.555 40.4939 104.12 40.3134 103.197 39.542C102.384 38.8637 101.827 38.8679 100.71 39.5589C99.0744 40.5743 98.4271 40.8578 98.0069 40.7464C97.6416 40.6491 97.4964 40.4798 96.7687 39.291C96.2948 38.521 95.8548 38.5873 94.3698 39.6534C92.6479 40.8874 91.3096 41.5784 90.6369 41.5784C90.2068 41.5784 90.022 41.4896 89.7315 41.1441Z" fill="black"/>
</svg>
