<?xml version="1.0" encoding="UTF-8"?>
<svg id="Layer_1" data-name="Layer 1" xmlns="http://www.w3.org/2000/svg" viewBox="0 0 467.48 54.44">
  <defs>
  </defs>
  <path fill="white" d="M56.75,5.55c-1.06.62-2.31,2.37-3.31,4.49-.81,1.75-2.43,4.99-6.73,14.28-4.8,10.42-7.17,15.53-7.67,16.46-.44.81-.94,1.5-1.5,1.5-1.06,0-1.56-.44-2-1.18-.5-.87-2.93-5.3-3.62-6.74-1.12-2.24-2.68-5.05-3.8-6.98-1.06,1.75-2.62,4.24-3.87,6.49-1.43,2.62-3.12,5.55-3.74,6.67-.69,1.25-1.12,1.75-2.06,1.75-.87,0-1.43-.75-1.93-1.87C11.35,28.38,8.48,21.76,2.49,7.48c-.31-.75-.62-1.31-1.43-1.62-.94-.37-1.06-.62-1.06-1.87,0-1.5.19-1.68,2.12-1.68.81,0,2.12.19,4.43.19,2.99,0,7.3-.19,13.66-.19,6.92,0,9.23.19,11.85.19s6.55-.19,8.86-.19c1.43,0,1.56.06,1.56,1.19,0,1.06-.19,1.37-.94,1.62-1.25.38-1.68.62-2.37,1.75-1,1.75-2,3.62-2.87,5.3-1,1.93-2.25,4.55-3.24,6.8.75,2,1.56,3.93,2.25,5.36,2,3.93,2.99,5.74,4.12,7.48,1.31-2.43,2.06-4.05,5.74-11.91,3.12-6.67,5.43-12.1,5.43-12.97,0-.69-.44-1.06-1.62-1.37-2.56-.62-2.62-.94-2.62-2.25,0-.94.19-1,1.93-1,1.06,0,2.12.19,3.99.19s3.31-.19,4.05-.19c1.5,0,1.68.06,1.68,1.25,0,1.06-.12,1.31-1.25,2ZM22.51,16.03c-1-2.18-3.43-7.17-4.43-8.98-1-1.81-2.18-2.25-4.12-2.25-1.56,0-3.18,1-3.18,1.93,0,.56,1.25,3.62,4.18,10.54,3.87,9.23,5.67,12.85,6.61,14.59.69-.87,1.68-2.43,2.31-3.49.5-.87,1.56-2.81,2.18-4.3-1.06-2.68-2.18-5.11-3.55-8.04ZM30.99,4.86c-3.31,0-3.87.56-3.93,1.93-.06.69.56,2.56,1.81,5.11.62,1.31,1.43,2.74,2.18,3.99.62-1,1.43-2.68,2.31-4.68.69-1.56,1.43-3.43,1.43-4.3-.06-1.87-1.68-2.06-3.8-2.06Z"/>
  <path fill="white" d="M77.76,41.85c-1.12.37-2.06.37-3.24.44-2,.12-2.37-.12-2.74-.69-.25-.37-.75-1.31-.87-2.12-1.18.69-2.31,1.12-3.62,1.62-.62.25-2.74.94-4.74.94-1.37,0-2.93-.31-3.68-.87-1.56-1.12-2.81-2.5-2.81-5.11,0-3.43,2.68-5.11,4.99-5.8,1.62-.5,7.86-1.5,10.17-1.87.12-1.5.12-3.87,0-5.11-.12-1.44-1.56-2.56-3.49-2.56-1.25,0-2,.25-2.62,1.06-.37.44-.56.81-.69,1.31-.12.62-1.37,1.31-2.12,1.56-1.06.38-2.37.69-3.06.69-.94,0-1.68-.31-1.68-1.12,0-1.12.31-1.75,3.37-3.93,1.81-1.25,5.61-2.93,10.17-2.93,2.31,0,5.18.5,6.3,2.5.56,1,.94,2.43.94,4.37,0,1.56-.12,2.87-.25,4.3-.19,2.68-.25,5.43-.25,8.11,0,1.31.87,1.68,1.37,1.68.25,0,.62-.12.94-.12.19,0,.37.19.56.37.37.37.44.69.44,1.25,0,.81-.12,1.06-3.37,2.06ZM66.22,31.93c-1.81.37-2.93,2-2.93,3.55,0,3.06,1.75,3.18,2.99,3.18.69,0,1.81-.37,3.31-1,1-.44,1.25-.87,1.37-2.5.06-.94.06-3.49.06-4.18-1.06.19-2.62.5-4.8.94Z"/>
  <path fill="white" d="M94.22,41.6c-.87,0-1.56-.12-4.99-.12-3.8,0-4.37.19-5.3.19-1.31,0-1.81-.25-1.81-.94,0-1.12.25-1.37,1.25-1.56,1.5-.25,1.87-.75,1.93-2.5.06-2.56.31-4.55.31-12.6v-14.41c0-1.37-.12-1.75-1-2.43-1-.75-1.5-1.19-1.5-1.68,0-.62.5-1.06,1.5-1.68.81-.5,4.12-2.18,4.8-2.56,1.81-1,2.62-1.31,3.18-1.31s.81.12.81,1.43c0,1-.06,1.56-.25,2.06-.19.5-.44,2-.44,2.93,0,1-.06,15.22-.06,18.08,0,3.74-.25,11.1-.25,11.97,0,1.5.56,2.12,1.87,2.43,1.5.37,1.68.5,1.68,1.5,0,.87-.19,1.19-1.75,1.19Z"/>
  <path fill="white" d="M110.5,21.27c-2.18.06-3.43.19-4.61.31-.31,6.17-.31,8.79-.31,12.66,0,.87.37,1.75,1.31,2.56.56.5,1.31.75,2,.75.62,0,1.12-.06,1.75-.25.44-.12.87-.25,1.12-.25s.37.25.37,1.06c0,1.5-.12,1.75-.81,2.18-.94.62-2.56,1.37-3.62,1.62-.94.25-2.43.37-3.12.37-1.12,0-3.06-.12-4.37-1.62-1.12-1.31-1.62-3.06-1.62-4.74,0-2.5.31-8.98.31-14.03-.44-.06-1.06-.12-1.56-.12-1.18,0-1.37-.25-1.37-1.25s.19-1.25.75-1.87c.87-.94,5.49-4.8,6.92-6.05.81-.69,1.19-1,1.81-1s.81.19.81,1.06v5.3c1.93-.12,3.62-.19,4.43-.19,1.31,0,1.5.06,1.5.94,0,.81.06,1.37.06,1.75,0,.56-.12.75-1.75.81Z"/>
  <path fill="white" d="M137.62,37.29c-1.75,1.81-6.61,4.99-11.91,4.99-6.98,0-11.97-4.61-11.97-12.04s5.61-12.91,13.16-12.91c3.99,0,6.36,1.12,8.17,2.99,1.25,1.31,2.81,4.24,3.06,5.49.19.69.19,1.25-.94,1.5-4.61.94-11.1,2.18-14.65,2.87-.69.12-.87.31-.87.81s.19,2.56.87,3.87c1.37,2.56,3.24,3.49,5.43,3.49,2.68,0,5.92-1.56,7.8-2.93.62-.44,1-.69,1.43-.69.31,0,.94.75.94,1.31,0,.5-.06.81-.5,1.25ZM125.96,20.02c-3.18,0-4.3,4.55-4.3,6.55,0,.56,0,.87.5.81,1.68-.31,6.05-1.12,7.98-1.5.5-.12.56-.38.44-1.12-.19-1.37-1.25-4.74-4.61-4.74Z"/>
  <path fill="white" d="M158.26,23.82c-.19,1.43-.5,2.43-1.75,2.43-1.56,0-2.06-.25-2.93-1.06-1.06-1-1.75-1.18-2.43-1.18-.5,0-.87.25-1.62.69-.81.5-1.31.87-1.37,2.43-.06,1.56-.12,6.42-.12,7.61,0,1.25.19,3.43.75,3.68,1.06.5,2.25.62,3.93.62,1.18,0,1.37,0,1.37,1.43,0,.94-.19,1.12-1.37,1.12-.81,0-2.43-.19-6.42-.19s-5.11.25-6.05.25c-1.25,0-1.5-.19-1.5-1.19,0-.94.06-1.25,1.12-1.56,1.18-.31,1.31-.75,1.37-1.56.06-1.5,0-10.79,0-11.66,0-1.31-.06-1.62-1.18-2.25-1.37-.75-1.62-1.12-1.62-1.68,0-.37,0-.93,1.25-1.5,1.62-.75,5.05-2.37,5.74-2.74.69-.37,1.31-.69,1.87-.75,1.12-.12,1.5,0,1.5,1.56,0,.38-.19,1.68-.25,2.74-.06.62-.12,1.19-.06,1.62,1.12-.94,2.99-2.49,4.18-3.49.75-.62,2.18-1.43,3.31-1.43,1.62,0,2.37,1,2.37,2.49,0,1.25,0,2.87-.06,3.55Z"/>
  <path fill="white" d="M232.34,5.55c-1.06.62-2.31,2.37-3.31,4.49-.81,1.75-2.43,4.99-6.73,14.28-4.8,10.42-7.17,15.53-7.67,16.46-.44.81-.94,1.5-1.5,1.5-1.06,0-1.56-.44-2-1.18-.5-.87-2.93-5.3-3.62-6.74-1.12-2.24-2.68-5.05-3.8-6.98-1.06,1.75-2.62,4.24-3.87,6.49-1.43,2.62-3.12,5.55-3.74,6.67-.69,1.25-1.12,1.75-2.06,1.75-.87,0-1.43-.75-1.93-1.87-5.18-12.04-8.04-18.65-14.03-32.93-.31-.75-.62-1.31-1.43-1.62-.94-.37-1.06-.62-1.06-1.87,0-1.5.19-1.68,2.12-1.68.81,0,2.12.19,4.43.19,2.99,0,7.3-.19,13.66-.19,6.92,0,9.23.19,11.85.19s6.55-.19,8.86-.19c1.43,0,1.56.06,1.56,1.19,0,1.06-.19,1.37-.94,1.62-1.25.38-1.68.62-2.37,1.75-1,1.75-2,3.62-2.87,5.3-1,1.93-2.25,4.55-3.24,6.8.75,2,1.56,3.93,2.25,5.36,2,3.93,2.99,5.74,4.12,7.48,1.31-2.43,2.06-4.05,5.74-11.91,3.12-6.67,5.43-12.1,5.43-12.97,0-.69-.44-1.06-1.62-1.37-2.56-.62-2.62-.94-2.62-2.25,0-.94.19-1,1.93-1,1.06,0,2.12.19,3.99.19s3.31-.19,4.05-.19c1.5,0,1.68.06,1.68,1.25,0,1.06-.12,1.31-1.25,2ZM198.11,16.03c-1-2.18-3.43-7.17-4.43-8.98-1-1.81-2.18-2.25-4.12-2.25-1.56,0-3.18,1-3.18,1.93,0,.56,1.25,3.62,4.18,10.54,3.87,9.23,5.67,12.85,6.61,14.59.69-.87,1.68-2.43,2.31-3.49.5-.87,1.56-2.81,2.18-4.3-1.06-2.68-2.18-5.11-3.55-8.04ZM206.59,4.86c-3.31,0-3.87.56-3.93,1.93-.06.69.56,2.56,1.81,5.11.62,1.31,1.43,2.74,2.18,3.99.62-1,1.43-2.68,2.31-4.68.69-1.56,1.43-3.43,1.43-4.3-.06-1.87-1.68-2.06-3.8-2.06Z"/>
  <path fill="white" d="M245.56,42.03c-8.48,0-13.91-5.36-13.91-12.1,0-7.73,6.61-12.6,13.66-12.6,9.29,0,14.41,6.11,14.41,12.35,0,7.05-6.55,12.35-14.16,12.35ZM245.06,20.14c-3.37,0-5.61,2.31-5.61,8.04s2.99,11.04,6.98,11.04,5.49-2.56,5.49-8.29-3.24-10.79-6.86-10.79Z"/>
  <path fill="white" d="M272.75,41.6c-.87,0-1.56-.12-4.99-.12-3.8,0-4.37.19-5.3.19-1.31,0-1.81-.25-1.81-.94,0-1.12.25-1.37,1.25-1.56,1.5-.25,1.87-.75,1.93-2.5.06-2.56.31-4.55.31-12.6v-14.41c0-1.37-.12-1.75-1-2.43-1-.75-1.5-1.19-1.5-1.68,0-.62.5-1.06,1.5-1.68.81-.5,4.12-2.18,4.8-2.56,1.81-1,2.62-1.31,3.18-1.31s.81.12.81,1.43c0,1-.06,1.56-.25,2.06s-.44,2-.44,2.93c0,1-.06,15.22-.06,18.08,0,3.74-.25,11.1-.25,11.97,0,1.5.56,2.12,1.87,2.43,1.5.37,1.68.5,1.68,1.5,0,.87-.19,1.19-1.75,1.19Z"/>
  <path fill="white" d="M294.2,7.17c-1,0-2-.75-2.56-1.25-1.06-1-1.68-1.31-2.87-1.31-1.5,0-2.06,1.06-2.43,2.18-.87,2.68-.75,10.17-.69,10.79.56.19,3.87.19,4.8.19,1.12,0,1.5.12,1.5,1.62,0,1.62-.12,2-1.31,2-1.81,0-3.87,0-5.11.12-.19,1.62-.12,11.47,0,15.09.06,1.25.19,1.75,2.06,2,1.56.19,2.56.37,2.56,1.68,0,.81-.19,1.37-2.31,1.37-1.12,0-2.31-.25-5.43-.25-3.43,0-4.8.25-5.92.25-1.37,0-1.56-.38-1.56-1.43,0-.81.19-1.06,1.87-1.68,1.43-.56,1.62-.81,1.62-1.81v-7.36c0-1.12.06-7.48.06-8.17h-1.81c-1.44,0-1.56-.19-1.56-1.87,0-1.31.31-1.56,1.5-1.56h1.81v-1.81c0-4.93,2.18-8.86,4.49-11.1,3.37-3.24,6.42-4.86,9.85-4.86,2.5,0,4.61.87,4.61,3.74,0,1.75-1.5,3.43-3.18,3.43Z"/>
  <path fill="white" d="M344.58,41.97c-1.19.25-2.68.31-3.37.31-3.49,0-5.86-1.12-8.29-3.43-1.81-1.68-4.74-6.3-6.42-11.85-.44-1.43-.69-1.56-2.68-1.56-1.31,0-1.5.19-1.62,1.75-.25,4.12-.19,7.8-.06,8.98.12,1.5.75,2.06,2.93,2.56,1.06.25,1.31.56,1.31,1.56,0,1.06-.19,1.37-1.37,1.37-1.31,0-2.56-.25-7.11-.25-3.99,0-4.99.25-6.24.25-1.62,0-1.87-.31-1.87-1.37,0-1.43.31-1.68,1.81-1.81,1.62-.12,2-.75,2.06-1.75.19-5.36.56-15.47.56-18.08v-9.17c0-2.31-.37-3.55-1.5-3.87-1.43-.37-1.56-.56-1.56-1.56,0-1.06.31-1.12,2.43-1.43,2.49-.38,10.1-.44,12.22-.44,7.05,0,16.65,3.31,16.65,10.29,0,3.87-.5,5.49-2.81,7.48-1.81,1.56-3.49,2.56-5.86,3.37.56,1.81,1.68,5.18,3.24,8.23,1.56,3.12,3.62,5.55,4.3,6.3.87.94,1.5,1.31,2.56,1.31,1.37,0,1.62.25,1.62,1.5,0,.69-.37,1.19-.94,1.31ZM331.98,7.36c-2.06-1.75-3.87-2.25-6.49-2.25-2.87,0-2.99.25-3.12,2.93-.19,4.86-.12,9.1,0,12.91.06,1,.12,1.25,2.49,1.25,2.25,0,4.8-.44,6.98-2.25,1.93-1.62,2.18-4.12,2.18-6.61,0-2.99-.62-4.8-2.06-5.99Z"/>
  <path fill="white" d="M368.83,41.85c-1.12.37-2.06.37-3.24.44-2,.12-2.37-.12-2.74-.69-.25-.37-.75-1.31-.87-2.12-1.18.69-2.31,1.12-3.62,1.62-.62.25-2.74.94-4.74.94-1.37,0-2.93-.31-3.68-.87-1.56-1.12-2.81-2.5-2.81-5.11,0-3.43,2.68-5.11,4.99-5.8,1.62-.5,7.86-1.5,10.17-1.87.12-1.5.12-3.87,0-5.11-.12-1.44-1.56-2.56-3.49-2.56-1.25,0-2,.25-2.62,1.06-.37.44-.56.81-.69,1.31-.12.62-1.37,1.31-2.12,1.56-1.06.38-2.37.69-3.06.69-.94,0-1.68-.31-1.68-1.12,0-1.12.31-1.75,3.37-3.93,1.81-1.25,5.61-2.93,10.17-2.93,2.31,0,5.18.5,6.3,2.5.56,1,.94,2.43.94,4.37,0,1.56-.12,2.87-.25,4.3-.19,2.68-.25,5.43-.25,8.11,0,1.31.87,1.68,1.37,1.68.25,0,.62-.12.94-.12.19,0,.37.19.56.37.37.37.44.69.44,1.25,0,.81-.12,1.06-3.37,2.06ZM357.3,31.93c-1.81.37-2.93,2-2.93,3.55,0,3.06,1.75,3.18,2.99,3.18.69,0,1.81-.37,3.31-1,1-.44,1.25-.87,1.37-2.5.06-.94.06-3.49.06-4.18-1.06.19-2.62.5-4.8.94Z"/>
  <path fill="white" d="M393.72,39.48c-1.37.93-4.87,2.56-8.48,2.56-4.68,0-7.05-1.31-9.6-4.18-1.31-1.43-2.18-3.68-2.18-6.86,0-3.99,2.18-7.67,4.74-9.54,4.12-3.06,6.55-4.12,10.66-4.12,1.81,0,3.62.19,4.8.62,1.25.44,1.5,1.18,1.5,2.37,0,1.81-.19,2.49-.87,3.18-.56.56-1.56.93-2.25.93-.75,0-1.75-.5-2.37-1.12-.62-.62-1.5-1.62-2.06-2-.56-.38-1.12-.69-1.87-.69-.94,0-1.68.12-2.43.62-1.12.69-2.18,3.62-2.18,6.49,0,3.87.44,5.36,1.5,6.99,2,2.99,3.99,3.55,5.61,3.55s2.37-.25,3.74-.75c1.31-.5,1.75-.69,2.24-.69.81,0,1.12.06,1,1-.06.56-.44.87-1.5,1.62Z"/>
  <path fill="white" d="M407.93,41.6c-1.31,0-2.37-.19-4.68-.19-2.87,0-4.05.25-4.93.25-1.68,0-1.93-.25-1.93-1,0-.87.19-1.12,1.31-1.37,1.25-.25,1.75-1,1.81-1.87.31-4.87.31-8.23.06-11.97-.06-1.12-.31-2.06-1.06-2.43-.94-.5-1.37-.81-1.37-1.43,0-.87,1.43-1.75,3.62-2.81,3.12-1.5,4.3-1.75,4.99-1.75.81,0,1.25,0,1.25,1.5,0,.81-.19,1.93-.25,2.56-.31,2.12-.25,13.1-.06,16.03.06,1,.06,1.37,1.62,1.68,1.18.25,1.87.5,1.87,1.56,0,.87-.12,1.25-2.24,1.25ZM404.13,9.73c-2.93,0-4.24-1.62-4.24-3.68,0-2.56,1.56-3.74,3.8-3.74,2.37,0,3.68,1.19,3.68,3.87,0,2.25-1.62,3.55-3.24,3.55Z"/>
  <path fill="white" d="M437.8,41.66c-1.12,0-2.25-.25-4.12-.25-2.56,0-3.62.19-4.74.19-1.56,0-1.93-.19-1.93-1.19,0-.56.31-.93,1.06-1.25,1.75-.62,1.81-1.12,2-2.37.19-1.31.12-7.05.12-8.98s-.5-2.99-1.25-3.62c-1.18-.93-2.06-1.12-3.55-1.12-1.37,0-2.06.19-3.06.56-.75.31-1,1.06-1.12,1.68-.31,2.81-.25,9.23-.25,10.48,0,1.5-.62,2.5,2.06,3.06.94.19,1,.56,1,1.31,0,1.12-.19,1.43-1.31,1.43-1.18,0-2.68-.19-5.55-.19s-3.87.19-5.24.19c-.94,0-1-.31-1-1.37,0-.81.12-.94,1.06-1.43,1.43-.75,1.87-1.5,1.87-3.18v-10.66c0-.94-.06-1.19-.75-1.68-.56-.44-.69-.44-1.25-.87-.37-.31-.69-.62-.69-1.06,0-.5.19-.87.87-1.31,1.75-1.25,3.24-1.93,5.24-2.68.81-.31,2.18-.62,2.68-.69.75-.12,1.12.06,1.12.81,0,.69.06,2.25.06,3.12s.19,1,.87.56c2.99-1.87,5.24-3.37,8.79-3.37,3.74,0,6.24,2.81,6.24,6.55,0,2.12-.19,10.98-.19,11.6,0,2,.12,2.25,1.43,2.74,1.5.56,1.56.81,1.56,1.37,0,1.18-.19,1.62-2.06,1.62Z"/>
  <path fill="white" d="M466.55,22.08c-1.25.12-2.68.12-4.18.19,1.18,1.43,1.5,4.12.94,6.42-.5,2.06-2.74,4.12-4.37,5.05-2.31,1.37-5.55,2.12-7.3,2.37-1.31.19-2.87.69-2.87,1.56,0,.56.44.94,2.43,1,1.56.06,8.48.31,10.17.56,3.8.56,5.67,2.81,5.67,5.18,0,2.93-.75,4.8-5.3,7.48-2.24,1.31-6.3,2.56-12.6,2.56-4.18,0-5.74-.5-7.17-1.43-1.81-1.18-2.5-2.06-2.5-4.43,0-1.43.75-2.62,2.37-3.8.44-.31,2.12-.87,3.37-1.37-1.75-.62-4.62-1.62-4.62-3.62,0-1.25.56-2.31,2.43-3.18,1.06-.5,2.81-1,3.74-1.25.56-.12.44-.56-.12-.69-.94-.25-1.81-.69-2.81-1.5-1.62-1.31-2.87-2.99-2.87-6.17,0-1.75.81-4.49,3.37-6.61,2.68-2.25,5.43-3.06,7.92-3.06,1.68,0,2.43.12,3.55.38.94.19,1.62.25,3.24.25,1.93,0,3.24,0,6.42-.19,1.43-.06,1.68,0,1.81.81.12.75.19,2.12.19,2.62,0,.62-.12.81-.94.87ZM459.37,45.4c-2.49-.38-5.11-.56-6.49-.62-1.37-.06-2.87-.06-3.8-.06-2.25.87-3.24,2-3.24,3.37,0,1.56,1.68,2.99,6.67,2.99,5.8,0,8.86-1.06,8.86-3.43,0-1.56-.87-2.06-2-2.24ZM455.07,22.08c-1.37-1.37-2.62-1.75-3.55-1.75-1.25,0-3.37.37-3.62,2.25-.19,1.37-.31,2.87.25,5.42.69,3.06,3.68,4.99,5.43,4.99,1.5,0,3.68-.44,3.68-4.87,0-1.12-.75-4.61-2.18-6.05Z"/>
</svg>